<?xml version="1.0" encoding="UTF-8"?>
<!DOCTYPE svg PUBLIC "-//W3C//DTD SVG 1.1//EN" "http://www.w3.org/Graphics/SVG/1.1/DTD/svg11.dtd">
<svg xmlns="http://www.w3.org/2000/svg" version="1.1" width="180px" height="180px" style="shape-rendering:geometricPrecision; text-rendering:geometricPrecision; image-rendering:optimizeQuality; fill-rule:evenodd; clip-rule:evenodd" xmlns:xlink="http://www.w3.org/1999/xlink">
<g><path style="opacity:1" fill="#fafbfb" d="M -0.5,-0.5 C 59.5,-0.5 119.5,-0.5 179.5,-0.5C 179.5,59.5 179.5,119.5 179.5,179.5C 119.5,179.5 59.5,179.5 -0.5,179.5C -0.5,119.5 -0.5,59.5 -0.5,-0.5 Z"/></g>
<g><path style="opacity:1" fill="#cdf5fc" d="M 143.5,36.5 C 135.555,32.2646 127.222,31.4312 118.5,34C 116.283,35.7235 113.95,37.2235 111.5,38.5C 111.511,36.9826 112.177,35.8159 113.5,35C 115.49,33.2494 117.823,32.2494 120.5,32C 128.372,31.0288 136.038,31.5288 143.5,33.5C 143.5,34.5 143.5,35.5 143.5,36.5 Z"/></g>
<g><path style="opacity:1" fill="#207cb5" d="M 101.5,36.5 C 95.5563,35.1979 89.5563,34.6979 83.5,35C 82.4477,36.7165 83.1144,37.7165 85.5,38C 88.8678,38.5428 92.2011,38.3761 95.5,37.5C 96.8011,39.6719 97.8011,42.0052 98.5,44.5C 97.596,45.209 97.2627,46.209 97.5,47.5C 94.1501,47.665 90.8168,47.4983 87.5,47C 89.9368,45.6253 92.6035,45.1253 95.5,45.5C 95.5,44.1667 95.5,42.8333 95.5,41.5C 90.1667,41.5 84.8333,41.5 79.5,41.5C 79.5,39.8333 79.5,38.1667 79.5,36.5C 77.0289,36.233 75.3622,37.233 74.5,39.5C 76.1148,40.9823 77.1148,42.8157 77.5,45C 76.9233,47.137 76.59,49.3037 76.5,51.5C 75.2024,47.4081 73.2024,43.5748 70.5,40C 77.4091,32.9419 85.7424,30.6086 95.5,33C 97.7274,33.941 99.7274,35.1077 101.5,36.5 Z"/></g>
<g><path style="opacity:1" fill="#0d82c9" d="M 47.5,36.5 C 54.0506,36.2 60.2173,37.5334 66,40.5C 67.1821,42.3436 68.3488,44.1769 69.5,46C 68.8538,52.1804 68.1872,58.3471 67.5,64.5C 68.3569,65.4252 69.3569,66.0919 70.5,66.5C 68.5676,69.0017 67.0676,71.3351 66,73.5C 64.0972,71.559 63.2639,69.2257 63.5,66.5C 64.5,66.5 65.5,66.5 66.5,66.5C 64.9358,60.3233 64.1025,53.99 64,47.5C 63.8295,52.8642 63.3295,58.1975 62.5,63.5C 60.0163,61.517 57.6829,59.3504 55.5,57C 56.0606,55.4345 55.3939,54.1011 53.5,53C 48.523,51.7982 46.523,48.6316 47.5,43.5C 43.0972,44.1067 41.7639,42.44 43.5,38.5C 44.9492,37.8281 46.2825,37.1614 47.5,36.5 Z"/></g>
<g><path style="opacity:1" fill="#206bb5" d="M 44.5,34.5 C 46.1788,34.2852 47.1788,34.9519 47.5,36.5C 46.2825,37.1614 44.9492,37.8281 43.5,38.5C 41.7639,42.44 43.0972,44.1067 47.5,43.5C 46.523,48.6316 48.523,51.7982 53.5,53C 55.3939,54.1011 56.0606,55.4345 55.5,57C 57.6829,59.3504 60.0163,61.517 62.5,63.5C 63.3295,58.1975 63.8295,52.8642 64,47.5C 64.1025,53.99 64.9358,60.3233 66.5,66.5C 65.5,66.5 64.5,66.5 63.5,66.5C 63.2639,69.2257 64.0972,71.559 66,73.5C 67.0676,71.3351 68.5676,69.0017 70.5,66.5C 70.9321,65.2905 71.5987,64.2905 72.5,63.5C 71.1616,70.8373 67.1616,76.1706 60.5,79.5C 56.0489,76.4435 52.3822,72.6101 49.5,68C 45.6189,69.2953 43.9522,67.7953 44.5,63.5C 43.5,63.5 42.5,63.5 41.5,63.5C 41.6495,62.448 41.4828,61.448 41,60.5C 37.8909,57.2184 34.7243,54.2184 31.5,51.5C 30.9473,47.5443 30.1139,47.5443 29,51.5C 28.5357,50.9056 28.369,50.2389 28.5,49.5C 28.5029,46.325 29.5029,43.4916 31.5,41C 35.3088,37.7623 39.6421,35.5956 44.5,34.5 Z"/></g>
<g><path style="opacity:1" fill="#108bce" d="M 101.5,36.5 C 106.484,38.9965 109.984,42.9965 112,48.5C 113.61,53.6098 113.777,58.6098 112.5,63.5C 112.657,62.1266 112.49,60.7932 112,59.5C 111.282,60.4506 110.449,60.6172 109.5,60C 108.667,58.5 107.5,57.3333 106,56.5C 105.517,55.552 105.351,54.552 105.5,53.5C 104.448,53.6495 103.448,53.4828 102.5,53C 101.324,51.3257 99.9902,49.8257 98.5,48.5C 104.853,47.4924 104.853,46.1591 98.5,44.5C 97.8011,42.0052 96.8011,39.6719 95.5,37.5C 92.2011,38.3761 88.8678,38.5428 85.5,38C 83.1144,37.7165 82.4477,36.7165 83.5,35C 89.5563,34.6979 95.5563,35.1979 101.5,36.5 Z"/></g>
<g><path style="opacity:1" fill="#2b8fc0" d="M 143.5,38.5 C 147.471,40.7189 150.304,44.0522 152,48.5C 153.523,53.6217 153.69,58.6217 152.5,63.5C 152.768,61.901 152.434,60.5676 151.5,59.5C 151.665,56.4816 151.498,53.4816 151,50.5C 149.676,49.1198 148.343,48.7865 147,49.5C 146.505,47.5273 146.338,45.5273 146.5,43.5C 145.5,43.5 144.5,43.5 143.5,43.5C 143.5,41.8333 143.5,40.1667 143.5,38.5 Z"/></g>
<g><path style="opacity:1" fill="#38699b" d="M 52.5,32.5 C 49.8333,33.1667 47.1667,33.8333 44.5,34.5C 39.6421,35.5956 35.3088,37.7623 31.5,41C 29.5029,43.4916 28.5029,46.325 28.5,49.5C 26.7345,52.1226 26.0679,55.1226 26.5,58.5C 25.8333,56.8333 25.1667,55.1667 24.5,53.5C 28.0744,38.9358 37.4078,31.9358 52.5,32.5 Z"/></g>
<g><path style="opacity:1" fill="#1080c7" d="M 143.5,36.5 C 143.5,37.1667 143.5,37.8333 143.5,38.5C 143.5,40.1667 143.5,41.8333 143.5,43.5C 144.5,43.5 145.5,43.5 146.5,43.5C 146.338,45.5273 146.505,47.5273 147,49.5C 148.343,48.7865 149.676,49.1198 151,50.5C 151.498,53.4816 151.665,56.4816 151.5,59.5C 151.533,63.4062 150.199,66.7395 147.5,69.5C 143.155,67.9944 139.155,65.9944 135.5,63.5C 134.344,59.4999 131.844,56.4999 128,54.5C 127.502,51.1832 127.335,47.8499 127.5,44.5C 124.833,44.5 122.167,44.5 119.5,44.5C 119.544,40.9103 121.211,38.4103 124.5,37C 122.5,36.3333 120.5,36.3333 118.5,37C 116.408,39.036 114.074,40.536 111.5,41.5C 110.375,40.6522 110.375,39.6522 111.5,38.5C 113.95,37.2235 116.283,35.7235 118.5,34C 127.222,31.4312 135.555,32.2646 143.5,36.5 Z"/></g>
<g><path style="opacity:1" fill="#285ea7" d="M 31.5,51.5 C 34.7243,54.2184 37.8909,57.2184 41,60.5C 41.4828,61.448 41.6495,62.448 41.5,63.5C 42.5,63.5 43.5,63.5 44.5,63.5C 43.9522,67.7953 45.6189,69.2953 49.5,68C 52.3822,72.6101 56.0489,76.4435 60.5,79.5C 58.2986,80.5664 55.9653,81.233 53.5,81.5C 52.0474,80.1751 52.3808,79.3418 54.5,79C 52.3333,76.8333 50.1667,74.6667 48,72.5C 47.6667,73.8333 47.3333,75.1667 47,76.5C 45.3642,74.7956 43.5309,73.2956 41.5,72C 41.9574,71.586 42.2907,71.086 42.5,70.5C 40.0201,68.6961 38.3535,66.3627 37.5,63.5C 35.5,63.5 33.5,63.5 31.5,63.5C 31.5,59.5 31.5,55.5 31.5,51.5 Z"/></g>
<g><path style="opacity:1" fill="#1788c0" d="M 52.5,32.5 C 68.9642,36.6133 75.6309,46.9466 72.5,63.5C 71.5987,64.2905 70.9321,65.2905 70.5,66.5C 69.3569,66.0919 68.3569,65.4252 67.5,64.5C 68.1872,58.3471 68.8538,52.1804 69.5,46C 68.3488,44.1769 67.1821,42.3436 66,40.5C 60.2173,37.5334 54.0506,36.2 47.5,36.5C 47.1788,34.9519 46.1788,34.2852 44.5,34.5C 47.1667,33.8333 49.8333,33.1667 52.5,32.5 Z"/></g>
<g><path style="opacity:1" fill="#1677bf" d="M 98.5,44.5 C 104.853,46.1591 104.853,47.4924 98.5,48.5C 99.9902,49.8257 101.324,51.3257 102.5,53C 103.448,53.4828 104.448,53.6495 105.5,53.5C 105.351,54.552 105.517,55.552 106,56.5C 107.5,57.3333 108.667,58.5 109.5,60C 110.449,60.6172 111.282,60.4506 112,59.5C 112.49,60.7932 112.657,62.1266 112.5,63.5C 112.104,66.721 110.771,69.3877 108.5,71.5C 107.671,70.6676 106.838,71.001 106,72.5C 105.667,70.8333 105.333,69.1667 105,67.5C 102.824,67.0116 100.991,66.0116 99.5,64.5C 95.5546,63.5091 91.5546,63.1758 87.5,63.5C 87.6495,62.448 87.4828,61.448 87,60.5C 84.8333,59.6667 83.3333,58.1667 82.5,56C 81.552,55.5172 80.552,55.3505 79.5,55.5C 79.6641,52.8127 79.4974,50.146 79,47.5C 78.5034,49.8098 78.3367,52.1432 78.5,54.5C 77.8333,53.5 77.1667,52.5 76.5,51.5C 76.59,49.3037 76.9233,47.137 77.5,45C 77.1148,42.8157 76.1148,40.9823 74.5,39.5C 75.3622,37.233 77.0289,36.233 79.5,36.5C 79.5,38.1667 79.5,39.8333 79.5,41.5C 84.8333,41.5 90.1667,41.5 95.5,41.5C 95.5,42.8333 95.5,44.1667 95.5,45.5C 92.6035,45.1253 89.9368,45.6253 87.5,47C 90.8168,47.4983 94.1501,47.665 97.5,47.5C 97.2627,46.209 97.596,45.209 98.5,44.5 Z"/></g>
<g><path style="opacity:1" fill="#2565ae" d="M 108.5,71.5 C 105.05,77.0649 100.05,80.3983 93.5,81.5C 90.0125,74.5137 84.6792,69.347 77.5,66C 78.1667,65.6667 78.8333,65.3333 79.5,65C 78.5442,61.6064 78.2108,58.1064 78.5,54.5C 78.3367,52.1432 78.5034,49.8098 79,47.5C 79.4974,50.146 79.6641,52.8127 79.5,55.5C 80.552,55.3505 81.552,55.5172 82.5,56C 83.3333,58.1667 84.8333,59.6667 87,60.5C 87.4828,61.448 87.6495,62.448 87.5,63.5C 91.5546,63.1758 95.5546,63.5091 99.5,64.5C 100.991,66.0116 102.824,67.0116 105,67.5C 105.333,69.1667 105.667,70.8333 106,72.5C 106.838,71.001 107.671,70.6676 108.5,71.5 Z"/></g>
<g><path style="opacity:1" fill="#344d81" d="M 24.5,53.5 C 25.1667,55.1667 25.8333,56.8333 26.5,58.5C 26.4986,64.2043 28.1653,69.2043 31.5,73.5C 35.3416,73.5823 37.3416,75.5823 37.5,79.5C 27.877,73.5876 23.5437,64.9209 24.5,53.5 Z"/></g>
<g><path style="opacity:1" fill="#2369b3" d="M 151.5,59.5 C 152.434,60.5676 152.768,61.901 152.5,63.5C 147.839,77.1456 138.506,83.1456 124.5,81.5C 127.097,81.2792 127.097,80.7792 124.5,80C 134.648,79.6293 134.981,77.6293 125.5,74C 127.321,71.544 127.988,68.7107 127.5,65.5C 124.833,64.8333 122.167,64.1667 119.5,63.5C 119.528,58.1383 119.194,52.8049 118.5,47.5C 120.527,47.6621 122.527,47.4955 124.5,47C 121.655,44.9 118.988,45.0667 116.5,47.5C 115.778,46.4489 114.778,45.7822 113.5,45.5C 112.4,44.3951 111.733,43.0618 111.5,41.5C 114.074,40.536 116.408,39.036 118.5,37C 120.5,36.3333 122.5,36.3333 124.5,37C 121.211,38.4103 119.544,40.9103 119.5,44.5C 122.167,44.5 124.833,44.5 127.5,44.5C 127.335,47.8499 127.502,51.1832 128,54.5C 131.844,56.4999 134.344,59.4999 135.5,63.5C 139.155,65.9944 143.155,67.9944 147.5,69.5C 150.199,66.7395 151.533,63.4062 151.5,59.5 Z"/></g>
<g><path style="opacity:1" fill="#2a53a2" d="M 31.5,51.5 C 31.5,55.5 31.5,59.5 31.5,63.5C 33.5,63.5 35.5,63.5 37.5,63.5C 38.3535,66.3627 40.0201,68.6961 42.5,70.5C 42.2907,71.086 41.9574,71.586 41.5,72C 43.5309,73.2956 45.3642,74.7956 47,76.5C 47.3333,75.1667 47.6667,73.8333 48,72.5C 50.1667,74.6667 52.3333,76.8333 54.5,79C 52.3808,79.3418 52.0474,80.1751 53.5,81.5C 47.9771,82.7924 42.6437,82.1257 37.5,79.5C 37.3416,75.5823 35.3416,73.5823 31.5,73.5C 28.1653,69.2043 26.4986,64.2043 26.5,58.5C 26.0679,55.1226 26.7345,52.1226 28.5,49.5C 28.369,50.2389 28.5357,50.9056 29,51.5C 30.1139,47.5443 30.9473,47.5443 31.5,51.5 Z"/></g>
<g><path style="opacity:1" fill="#375790" d="M 113.5,45.5 C 114.778,45.7822 115.778,46.4489 116.5,47.5C 116.17,54.1998 116.503,60.8665 117.5,67.5C 118.833,68.1667 119.833,69.1667 120.5,70.5C 117.696,71.1047 115.029,71.938 112.5,73C 115.779,76.4596 119.446,79.2929 123.5,81.5C 118.111,80.6349 113.778,77.9682 110.5,73.5C 115.847,64.6527 116.847,55.3194 113.5,45.5 Z"/></g>
<g><path style="opacity:1" fill="#2c549f" d="M 76.5,51.5 C 77.1667,52.5 77.8333,53.5 78.5,54.5C 78.2108,58.1064 78.5442,61.6064 79.5,65C 78.8333,65.3333 78.1667,65.6667 77.5,66C 84.6792,69.347 90.0125,74.5137 93.5,81.5C 84.5522,83.1289 76.8855,80.6289 70.5,74C 75.8458,67.4401 77.8458,59.9401 76.5,51.5 Z"/></g>
<g><path style="opacity:1" fill="#265bab" d="M 124.5,81.5 C 124.167,81.5 123.833,81.5 123.5,81.5C 119.446,79.2929 115.779,76.4596 112.5,73C 115.029,71.938 117.696,71.1047 120.5,70.5C 119.833,69.1667 118.833,68.1667 117.5,67.5C 116.503,60.8665 116.17,54.1998 116.5,47.5C 118.988,45.0667 121.655,44.9 124.5,47C 122.527,47.4955 120.527,47.6621 118.5,47.5C 119.194,52.8049 119.528,58.1383 119.5,63.5C 122.167,64.1667 124.833,64.8333 127.5,65.5C 127.988,68.7107 127.321,71.544 125.5,74C 134.981,77.6293 134.648,79.6293 124.5,80C 127.097,80.7792 127.097,81.2792 124.5,81.5 Z"/></g>
<g><path style="opacity:1" fill="#6cacca" d="M 113.5,87.5 C 124.346,87.1722 135.013,87.5056 145.5,88.5C 139.5,88.5 133.5,88.5 127.5,88.5C 123.298,88.1832 119.298,88.5166 115.5,89.5C 114.5,89.1667 113.833,88.5 113.5,87.5 Z"/></g>
<g><path style="opacity:1" fill="#3a95be" d="M 31.5,88.5 C 43.6821,87.2614 56.0154,87.2614 68.5,88.5C 72.9207,89.5761 76.5874,91.9094 79.5,95.5C 74.5826,94.4405 69.9159,92.7738 65.5,90.5C 59.5594,89.5872 53.5594,89.2539 47.5,89.5C 42.3595,88.5119 37.0262,88.1786 31.5,88.5 Z"/></g>
<g><path style="opacity:1" fill="#2662ab" d="M 31.5,88.5 C 37.0262,88.1786 42.3595,88.5119 47.5,89.5C 41.989,89.2049 36.6557,90.0382 31.5,92C 33.5767,92.1922 35.5767,92.6922 37.5,93.5C 40.1549,97.3196 43.1549,100.82 46.5,104C 48.2279,105.726 50.2279,107.059 52.5,108C 52.0426,108.414 51.7093,108.914 51.5,109.5C 52.9492,110.172 54.2825,110.839 55.5,111.5C 50.1667,111.5 44.8333,111.5 39.5,111.5C 37.1073,110.79 34.6073,110.123 32,109.5C 31.5008,104.845 31.3342,100.179 31.5,95.5C 25.8861,94.4137 21.3861,96.0803 18,100.5C 17.5831,99.244 16.7498,98.5774 15.5,98.5C 19.1322,92.6722 24.4656,89.3388 31.5,88.5 Z"/></g>
<g><path style="opacity:1" fill="#1a71bd" d="M 115.5,89.5 C 119.298,88.5166 123.298,88.1832 127.5,88.5C 132.437,90.1342 137.771,91.1342 143.5,91.5C 140.893,92.3184 138.226,92.8184 135.5,93C 136.527,93.5133 137.527,94.0133 138.5,94.5C 137.791,95.404 136.791,95.7373 135.5,95.5C 135.337,100.547 135.671,105.547 136.5,110.5C 141.695,110.179 146.695,110.513 151.5,111.5C 144.167,111.5 136.833,111.5 129.5,111.5C 129.374,106.903 129.54,102.236 130,97.5C 128.582,94.999 127.582,95.3323 127,98.5C 125.924,95.921 124.091,94.2543 121.5,93.5C 119.5,92.1667 117.5,90.8333 115.5,89.5 Z"/></g>
<g><path style="opacity:1" fill="#2b8cc6" d="M 127.5,88.5 C 133.5,88.5 139.5,88.5 145.5,88.5C 155.563,90.725 162.397,96.725 166,106.5C 166.789,108.712 166.622,110.712 165.5,112.5C 153.322,112.828 141.322,112.495 129.5,111.5C 136.833,111.5 144.167,111.5 151.5,111.5C 154.898,111.82 158.232,111.487 161.5,110.5C 160.253,108.677 159.586,106.677 159.5,104.5C 155.147,103.681 151.647,101.348 149,97.5C 144.841,101.82 143.008,100.82 143.5,94.5C 141.833,94.5 140.167,94.5 138.5,94.5C 137.527,94.0133 136.527,93.5133 135.5,93C 138.226,92.8184 140.893,92.3184 143.5,91.5C 137.771,91.1342 132.437,90.1342 127.5,88.5 Z"/></g>
<g><path style="opacity:1" fill="#1972bb" d="M 47.5,89.5 C 53.5594,89.2539 59.5594,89.5872 65.5,90.5C 66.8526,91.8671 66.5193,92.8671 64.5,93.5C 58.8567,92.2112 53.1901,92.2112 47.5,93.5C 51.1224,94.3253 54.789,94.8253 58.5,95C 57.376,95.2492 56.376,95.7492 55.5,96.5C 59.7901,99.6151 63.1235,103.448 65.5,108C 64.6919,108.308 64.0253,108.808 63.5,109.5C 68.9853,110.167 74.3187,110.833 79.5,111.5C 71.5,111.5 63.5,111.5 55.5,111.5C 54.2825,110.839 52.9492,110.172 51.5,109.5C 51.7093,108.914 52.0426,108.414 52.5,108C 50.2279,107.059 48.2279,105.726 46.5,104C 43.1549,100.82 40.1549,97.3196 37.5,93.5C 35.5767,92.6922 33.5767,92.1922 31.5,92C 36.6557,90.0382 41.989,89.2049 47.5,89.5 Z"/></g>
<g><path style="opacity:1" fill="#3071a7" d="M 121.5,93.5 C 124.091,94.2543 125.924,95.921 127,98.5C 127.582,95.3323 128.582,94.999 130,97.5C 129.54,102.236 129.374,106.903 129.5,111.5C 128.506,104.838 125.84,98.8385 121.5,93.5 Z"/></g>
<g><path style="opacity:1" fill="#0b87cb" d="M 65.5,90.5 C 69.9159,92.7738 74.5826,94.4405 79.5,95.5C 83.1207,99.0707 85.454,103.404 86.5,108.5C 86.5,109.5 86.5,110.5 86.5,111.5C 84.1667,111.5 81.8333,111.5 79.5,111.5C 74.3187,110.833 68.9853,110.167 63.5,109.5C 64.0253,108.808 64.6919,108.308 65.5,108C 63.1235,103.448 59.7901,99.6151 55.5,96.5C 56.376,95.7492 57.376,95.2492 58.5,95C 54.789,94.8253 51.1224,94.3253 47.5,93.5C 53.1901,92.2112 58.8567,92.2112 64.5,93.5C 66.5193,92.8671 66.8526,91.8671 65.5,90.5 Z"/></g>
<g><path style="opacity:1" fill="#0d7ec1" d="M 138.5,94.5 C 140.167,94.5 141.833,94.5 143.5,94.5C 143.008,100.82 144.841,101.82 149,97.5C 151.647,101.348 155.147,103.681 159.5,104.5C 159.586,106.677 160.253,108.677 161.5,110.5C 158.232,111.487 154.898,111.82 151.5,111.5C 146.695,110.513 141.695,110.179 136.5,110.5C 135.671,105.547 135.337,100.547 135.5,95.5C 136.791,95.7373 137.791,95.404 138.5,94.5 Z"/></g>
<g><path style="opacity:1" fill="#2c4c9e" d="M 39.5,111.5 C 29.8333,111.5 20.1667,111.5 10.5,111.5C 10.5081,106.419 12.1748,102.085 15.5,98.5C 16.7498,98.5774 17.5831,99.244 18,100.5C 21.3861,96.0803 25.8861,94.4137 31.5,95.5C 31.3342,100.179 31.5008,104.845 32,109.5C 34.6073,110.123 37.1073,110.79 39.5,111.5 Z"/></g>
<g><path style="opacity:1" fill="#637892" d="M 86.5,108.5 C 87.4345,109.568 87.7678,110.901 87.5,112.5C 79.5,112.5 71.5,112.5 63.5,112.5C 45.6588,112.83 27.9921,112.497 10.5,111.5C 20.1667,111.5 29.8333,111.5 39.5,111.5C 44.8333,111.5 50.1667,111.5 55.5,111.5C 63.5,111.5 71.5,111.5 79.5,111.5C 81.8333,111.5 84.1667,111.5 86.5,111.5C 86.5,110.5 86.5,109.5 86.5,108.5 Z"/></g>
<g><path style="opacity:1" fill="#e1fafd" d="M 113.5,87.5 C 113.833,88.5 114.5,89.1667 115.5,89.5C 117.5,90.8333 119.5,92.1667 121.5,93.5C 125.84,98.8385 128.506,104.838 129.5,111.5C 141.322,112.495 153.322,112.828 165.5,112.5C 165.092,113.643 164.425,114.643 163.5,115.5C 153.4,114.89 143.067,114.224 132.5,113.5C 122.129,114.01 111.629,114.343 101,114.5C 88.304,114.585 75.804,113.919 63.5,112.5C 71.5,112.5 79.5,112.5 87.5,112.5C 87.7678,110.901 87.4345,109.568 86.5,108.5C 85.454,103.404 83.1207,99.0707 79.5,95.5C 76.5874,91.9094 72.9207,89.5761 68.5,88.5C 70.6208,88.6747 72.6208,88.3414 74.5,87.5C 87.3459,86.2785 100.346,86.2785 113.5,87.5 Z"/></g>
<g><path style="opacity:1" fill="#2084c5" d="M 75.5,89.5 C 85.3194,88.506 95.3194,88.1726 105.5,88.5C 118.201,91.5332 125.201,99.5332 126.5,112.5C 113.989,112.829 101.655,112.495 89.5,111.5C 96.8333,111.5 104.167,111.5 111.5,111.5C 111.675,107.459 111.842,103.459 112,99.5C 111.667,100.5 111.333,101.5 111,102.5C 110.282,101.549 109.449,101.383 108.5,102C 111.298,104.066 110.965,105.566 107.5,106.5C 103.64,103.061 99.973,99.3946 96.5,95.5C 95.7189,96.7287 95.2189,98.062 95,99.5C 93.5553,96.9449 92.3886,94.2782 91.5,91.5C 93.9777,90.306 91.9777,90.1393 85.5,91C 87.5127,91.8753 87.5127,93.2087 85.5,95C 86.6687,97.0065 87.3354,99.1732 87.5,101.5C 84.5275,96.5275 80.5275,92.5275 75.5,89.5 Z"/></g>
<g><path style="opacity:1" fill="#1974bd" d="M 89.5,111.5 C 89.69,107.968 89.0233,104.635 87.5,101.5C 87.3354,99.1732 86.6687,97.0065 85.5,95C 87.5127,93.2087 87.5127,91.8753 85.5,91C 91.9777,90.1393 93.9777,90.306 91.5,91.5C 92.3886,94.2782 93.5553,96.9449 95,99.5C 95.2189,98.062 95.7189,96.7287 96.5,95.5C 99.973,99.3946 103.64,103.061 107.5,106.5C 110.965,105.566 111.298,104.066 108.5,102C 109.449,101.383 110.282,101.549 111,102.5C 111.333,101.5 111.667,100.5 112,99.5C 111.842,103.459 111.675,107.459 111.5,111.5C 104.167,111.5 96.8333,111.5 89.5,111.5 Z"/></g>
<g><path style="opacity:1" fill="#69b1d1" d="M 74.5,87.5 C 85.0135,87.1724 95.3468,87.5058 105.5,88.5C 95.3194,88.1726 85.3194,88.506 75.5,89.5C 74.6618,89.1583 74.3284,88.4916 74.5,87.5 Z"/></g>
<g><path style="opacity:1" fill="#1c1c1c" d="M 9.5,126.5 C 10.5862,126.62 11.2528,127.287 11.5,128.5C 10.7766,130.782 10.4433,133.116 10.5,135.5C 12.8333,135.5 15.1667,135.5 17.5,135.5C 16.9159,132.017 17.7492,129.017 20,126.5C 20.0934,133.789 18.76,140.789 16,147.5C 15.4572,144.132 15.6239,140.799 16.5,137.5C 13.9556,137.104 11.7889,137.771 10,139.5C 10.2179,141.587 10.0512,143.587 9.5,145.5C 7.56599,139.204 7.56599,132.87 9.5,126.5 Z"/></g>
<g><path style="opacity:1" fill="#1a1a1a" d="M 86.5,126.5 C 90.1916,125.971 93.3583,126.971 96,129.5C 96.6667,130.833 96.6667,132.167 96,133.5C 93.4171,134.874 90.9171,136.374 88.5,138C 91.3119,140.901 94.3119,143.568 97.5,146C 93.8943,145.369 90.561,143.869 87.5,141.5C 86.8333,142.833 86.1667,144.167 85.5,145.5C 84.6693,139.354 85.0027,133.02 86.5,126.5 Z"/></g>
<g><path style="opacity:1" fill="#f0f0f0" d="M 86.5,130.5 C 89.4454,128.937 92.112,129.437 94.5,132C 93.1832,133.659 91.5165,134.826 89.5,135.5C 88.9986,133.345 87.9986,131.678 86.5,130.5 Z"/></g>
<g><path style="opacity:1" fill="#121212" d="M 113.5,141.5 C 115.504,137.398 118.504,135.731 122.5,136.5C 122.982,141.682 120.649,144.349 115.5,144.5C 115.715,142.821 115.048,141.821 113.5,141.5 Z"/></g>
<g><path style="opacity:1" fill="#eeeeee" d="M 119.5,138.5 C 120.801,140.456 120.301,142.123 118,143.5C 117.387,141.505 117.887,139.838 119.5,138.5 Z"/></g>
<g><path style="opacity:1" fill="#161616" d="M 54.5,141.5 C 53.0063,144.734 51.173,145.067 49,142.5C 46.9555,143.772 45.1222,143.439 43.5,141.5C 41.8513,142.648 40.3513,143.981 39,145.5C 39,143.5 39,141.5 39,139.5C 37.3333,141.167 35.6667,142.833 34,144.5C 33.6667,143.167 33.3333,141.833 33,140.5C 31.4551,143.293 29.2884,143.96 26.5,142.5C 25.1502,143.95 23.4835,144.617 21.5,144.5C 21.6495,143.448 21.4828,142.448 21,141.5C 20.3457,142.696 19.8457,142.696 19.5,141.5C 23.3144,134.516 24.8144,134.85 24,142.5C 25.3513,140.981 26.8513,139.648 28.5,138.5C 29.1667,139.5 29.8333,140.5 30.5,141.5C 32.1937,139.806 33.8604,138.14 35.5,136.5C 36.2508,137.376 36.7508,138.376 37,139.5C 40.5288,135.137 42.1955,135.47 42,140.5C 43,139.833 44,139.167 45,138.5C 46.0195,139.687 47.1861,140.687 48.5,141.5C 51.2139,138.785 54.2139,136.451 57.5,134.5C 57.8333,134.667 58.1667,134.833 58.5,135C 56.5,137 54.5,139 52.5,141C 53.0944,141.464 53.7611,141.631 54.5,141.5 Z"/></g>
<g><path style="opacity:1" fill="#1c1c1c" d="M 61.5,140.5 C 59.7,143.981 57.3667,144.314 54.5,141.5C 56.2955,137.75 57.9621,137.75 59.5,141.5C 60.1835,141.137 60.8501,140.804 61.5,140.5 Z"/></g>
<g><path style="opacity:1" fill="#060606" d="M 164.5,140.5 C 164.027,141.906 163.027,142.573 161.5,142.5C 161.973,141.094 162.973,140.427 164.5,140.5 Z"/></g>
<g><path style="opacity:1" fill="#1e1e1e" d="M 61.5,140.5 C 62.0211,137.281 63.6878,136.281 66.5,137.5C 65.9598,138.748 65.2931,139.915 64.5,141C 66.1764,140.566 67.8431,139.732 69.5,138.5C 70.3636,140.197 71.6969,141.363 73.5,142C 71.6755,144.081 70.0089,143.915 68.5,141.5C 66.8333,142.833 65.1667,144.167 63.5,145.5C 62.2528,143.994 62.2528,142.494 63.5,141C 62.9056,140.536 62.2389,140.369 61.5,140.5 Z"/></g>
<g><path style="opacity:1" fill="#212121" d="M 103.5,142.5 C 102.01,144.28 100.01,144.946 97.5,144.5C 96.5769,140.151 97.9102,136.817 101.5,134.5C 102.5,134.833 103.167,135.5 103.5,136.5C 102.516,138.48 101.183,140.147 99.5,141.5C 100.689,142.429 102.022,142.762 103.5,142.5 Z"/></g>
<g><path style="opacity:1" fill="#181818" d="M 113.5,141.5 C 112.237,143.43 110.57,145.097 108.5,146.5C 108.242,144.091 108.242,141.758 108.5,139.5C 107.06,140.952 105.394,141.952 103.5,142.5C 105.479,139.854 107.812,137.521 110.5,135.5C 111.769,137.695 111.769,139.861 110.5,142C 111.577,142.47 112.577,142.303 113.5,141.5 Z"/></g>
<g><path style="opacity:1" fill="#1c1c1c" d="M 161.5,142.5 C 159.46,145.134 157.293,145.134 155,142.5C 153.27,143.74 151.437,144.74 149.5,145.5C 147.575,145.41 146.408,144.41 146,142.5C 144.103,144.665 141.936,145.332 139.5,144.5C 140.52,142.568 140.687,140.568 140,138.5C 138.392,142.305 135.725,143.638 132,142.5C 130.556,144.155 128.722,144.822 126.5,144.5C 126.649,143.448 126.483,142.448 126,141.5C 125.282,142.451 124.449,142.617 123.5,142C 125.351,140.316 127.018,138.483 128.5,136.5C 128.755,138.343 128.922,140.343 129,142.5C 130.351,140.981 131.851,139.648 133.5,138.5C 134.167,139.5 134.833,140.5 135.5,141.5C 135.833,141.333 136.167,141.167 136.5,141C 137.267,138.947 138.6,137.447 140.5,136.5C 141.167,136.833 141.833,137.167 142.5,137.5C 143.301,139.353 143.635,141.019 143.5,142.5C 146.756,140.289 149.922,137.955 153,135.5C 153.667,136.167 153.667,136.833 153,137.5C 151.167,138.667 149.667,140.167 148.5,142C 149.025,142.692 149.692,143.192 150.5,143.5C 154.108,140.936 157.274,137.936 160,134.5C 161.567,137.418 160.734,139.751 157.5,141.5C 158.689,142.429 160.022,142.762 161.5,142.5 Z"/></g>
<g><path style="opacity:1" fill="#1b1b1b" d="M 164.5,140.5 C 165.3,138.318 166.8,136.651 169,135.5C 169.333,137.833 169.667,140.167 170,142.5C 170.654,141.304 171.154,141.304 171.5,142.5C 170.055,144.063 168.389,145.396 166.5,146.5C 165.385,144.511 165.718,142.678 167.5,141C 166.824,139.317 165.824,139.15 164.5,140.5 Z"/></g>
</svg>
